<svg xmlns="http://www.w3.org/2000/svg" width="1000" height="617" viewBox="0 0 1000 617"><title>Apostrophe Bordeaux-III_SVG</title><path d="M-.328,616.816S45.512,247.631,368.153-.066c0,0-21.337,327.444,109.757,433.183C398.5,534.363,342.865,609.943,342.865,609.943S249.71,536.582,210.067,364.1C153.5,449.3-.328,616.816-.328,616.816"/><path d="M699.751,9.419c104.616,0,162.241,111.691,116.7,238.848-38.182,106.686-41.7,205.05,39.847,244.91C937.91,533.01,1000,453.3,1000,453.3S963.969,585.169,814.988,585.169c-147.6,0-339.919-162.917-281.076-422.507C562.3,51.254,630.612,9.419,699.751,9.419"/></svg>